<?xml version="1.0" encoding="utf-8"?>
<!-- Generator: Adobe Illustrator 16.0.3, SVG Export Plug-In . SVG Version: 6.00 Build 0)  -->
<!DOCTYPE svg PUBLIC "-//W3C//DTD SVG 1.1//EN" "http://www.w3.org/Graphics/SVG/1.1/DTD/svg11.dtd">
<svg version="1.1" id="圖層_1" xmlns="http://www.w3.org/2000/svg" xmlns:xlink="http://www.w3.org/1999/xlink" x="0px" y="0px"
	 width="100px" height="100px" viewBox="0 0 100 100" enable-background="new 0 0 100 100" xml:space="preserve">
<circle fill="#E87536" cx="50" cy="50.001" r="42.667"/>
<g>
	<path fill="#FFFFFF" d="M32.446,37.127l15.021,11.899c0.68,0.533,1.623,0.774,2.53,0.731c0.913,0.043,1.849-0.191,2.535-0.731
		l15.022-11.899c1.2-0.951,0.929-1.726-0.6-1.726h-33.91C31.518,35.402,31.246,36.177,32.446,37.127L32.446,37.127z M32.446,37.127"
		/>
	<path fill="#FFFFFF" d="M68.636,40.264L52.219,52.727c-0.615,0.459-1.418,0.688-2.215,0.68c-0.804,0.008-1.609-0.221-2.223-0.68
		L31.365,40.264c-1.222-0.923-2.216-0.425-2.216,1.102v20.446c0,1.527,1.25,2.785,2.777,2.785h36.148
		c1.527,0,2.777-1.258,2.777-2.785V41.366C70.852,39.839,69.857,39.341,68.636,40.264L68.636,40.264z M68.636,40.264"/>
</g>
</svg>
