<?xml version="1.0" encoding="utf-8"?>
<!-- Generator: Adobe Illustrator 16.0.3, SVG Export Plug-In . SVG Version: 6.00 Build 0)  -->
<!DOCTYPE svg PUBLIC "-//W3C//DTD SVG 1.1//EN" "http://www.w3.org/Graphics/SVG/1.1/DTD/svg11.dtd">
<svg version="1.1" xmlns="http://www.w3.org/2000/svg" xmlns:xlink="http://www.w3.org/1999/xlink" x="0px" y="0px" width="100px"
	 height="100px" viewBox="0 0 100 100" enable-background="new 0 0 100 100" xml:space="preserve">
<g id="facebook" display="none">
	<path fill="#110909" d="M62.527,50.384H51.201v30.454H38.148V50.384h-6.29v-9.963h6.29v-6.47c0-8.792,3.793-14.02,14.131-14.02
		h11.914V30.71h-9.73c-2.888-0.005-3.245,1.506-3.245,4.318l-0.017,5.394h13.051L62.527,50.384z"/>
</g>
<g id="twitter" display="none">
	<g display="inline">
		<path fill="#FFFFFF" d="M78.896,30.792c-2.118,0.939-4.413,1.59-6.813,1.875c2.453-1.469,4.324-3.797,5.226-6.57
			c-2.297,1.359-4.836,2.35-7.555,2.877c-2.155-2.295-5.244-3.74-8.648-3.74c-6.549,0-11.864,5.313-11.864,11.861
			c0,0.936,0.11,1.833,0.304,2.703c-9.868-0.499-18.604-5.211-24.463-12.395c-1.025,1.748-1.608,3.795-1.608,5.968
			c0,4.113,2.1,7.75,5.277,9.864c-1.943-0.048-3.76-0.595-5.363-1.483V41.9c0,5.752,4.092,10.552,9.51,11.648
			c-0.99,0.265-2.046,0.406-3.121,0.406c-0.76,0-1.5-0.072-2.242-0.212c1.518,4.711,5.891,8.136,11.084,8.242
			c-4.063,3.177-9.183,5.065-14.74,5.065c-0.953,0-1.888-0.053-2.824-0.16c5.26,3.371,11.49,5.331,18.195,5.331
			c21.817,0,33.75-18.074,33.75-33.748l-0.035-1.536C75.295,35.26,77.308,33.178,78.896,30.792L78.896,30.792z"/>
	</g>
</g>
<g id="圖層_3" display="none">
	<g display="inline">
		<path fill="#FFFFFF" d="M59.857,27.545H31.859v45.678h11.587V60.591h27.998V27.545H59.857z M59.857,49.095H43.447V39.042h16.411
			V49.095z"/>
	</g>
</g>
<g id="圖層_4">
	<g>
		<g>
			<path fill="#FFFFFF" d="M47.114,53.29c-1.408-1.005-4.106-3.42-4.106-4.854c0-1.673,0.479-2.51,2.986-4.474
				c2.583-2.033,4.424-4.851,4.424-8.154c0-3.943-1.772-7.768-5.048-9.036h4.952l3.517-2.511H38.196
				c-6.979,0-13.575,5.308-13.575,11.453c0,6.261,4.778,11.334,11.905,11.334l1.431-0.049c-0.451,0.885-0.789,1.889-0.789,2.915
				c0,1.741,0.936,3.182,2.131,4.331l-2.725,0.022c-8.656,0-15.328,5.517-15.328,11.239c0,5.643,7.317,9.18,15.97,9.18
				c9.899,0,15.354-5.615,15.354-11.261C52.569,58.909,51.253,56.2,47.114,53.29z M38.772,45.473
				c-4.016-0.123-7.842-4.522-8.533-9.804c-0.7-5.284,2.006-9.325,6.023-9.208c4.013,0.124,7.839,4.379,8.539,9.636
				C45.491,41.408,42.787,45.588,38.772,45.473z M37.191,72.204c-5.975,0-10.302-3.802-10.302-8.351
				c0-4.465,5.357-8.193,11.355-8.131c1.39,0,2.708,0.239,3.875,0.629c3.249,2.247,5.595,3.537,6.244,6.122
				c0.141,0.525,0.188,1.074,0.188,1.601C48.552,68.644,45.633,72.204,37.191,72.204z"/>
		</g>
		<polygon fill="#FFFFFF" points="67.752,43.508 67.752,53.29 62.85,53.29 62.85,43.508 53.048,43.508 53.048,38.539 62.85,38.539 
			62.85,28.731 67.752,28.731 67.752,38.539 77.531,38.539 77.531,43.508 		"/>
	</g>
</g>
</svg>
