<?xml version="1.0" encoding="utf-8"?>
<!-- Generator: Adobe Illustrator 16.0.3, SVG Export Plug-In . SVG Version: 6.00 Build 0)  -->
<!DOCTYPE svg PUBLIC "-//W3C//DTD SVG 1.1//EN" "http://www.w3.org/Graphics/SVG/1.1/DTD/svg11.dtd">
<svg version="1.1" id="圖層_1" xmlns="http://www.w3.org/2000/svg" xmlns:xlink="http://www.w3.org/1999/xlink" x="0px" y="0px"
	 width="100px" height="100px" viewBox="0 0 100 100" enable-background="new 0 0 100 100" xml:space="preserve">
<circle fill="#E87536" cx="50" cy="50.001" r="42.667"/>
<g>
	<g>
		<path fill="#FFFFFF" d="M70.327,48.552l-18.75-16.489c-0.874-0.77-2.289-0.77-3.151,0L29.681,48.552
			c-0.874,0.771-0.64,1.393,0.524,1.393h5.784v16.887c0,0.921,0.757,1.684,1.684,1.684h7.077V57.406c0-0.92,0.757-1.684,1.684-1.684
			h7.146c0.933,0,1.685,0.746,1.685,1.684v11.108h7.076c0.933,0,1.684-0.757,1.684-1.684V49.939h5.784
			C70.957,49.939,71.188,49.322,70.327,48.552L70.327,48.552z M70.327,48.552"/>
	</g>
</g>
</svg>
