<?xml version="1.0" encoding="utf-8"?>
<!-- Generator: Adobe Illustrator 16.0.3, SVG Export Plug-In . SVG Version: 6.00 Build 0)  -->
<!DOCTYPE svg PUBLIC "-//W3C//DTD SVG 1.1//EN" "http://www.w3.org/Graphics/SVG/1.1/DTD/svg11.dtd">
<svg version="1.1" id="圖層_1" xmlns="http://www.w3.org/2000/svg" xmlns:xlink="http://www.w3.org/1999/xlink" x="0px" y="0px"
	 width="100px" height="100px" viewBox="0 0 100 100" enable-background="new 0 0 100 100" xml:space="preserve">
<g id="facebook" display="none">
	<path display="inline" fill="#110909" d="M62.527,50.384H51.201v30.454H38.148V50.384h-6.29v-9.963h6.29v-6.47
		c0-8.792,3.793-14.02,14.131-14.02h11.914V30.71h-9.73c-2.888-0.005-3.245,1.506-3.245,4.318l-0.017,5.394h13.051L62.527,50.384z"
		/>
</g>
<g id="twitter" display="none">
	<g display="inline">
		<path fill="#FFFFFF" d="M78.896,30.792c-2.119,0.939-4.414,1.59-6.813,1.875c2.453-1.469,4.324-3.797,5.226-6.57
			c-2.297,1.359-4.836,2.35-7.555,2.877c-2.154-2.295-5.244-3.74-8.648-3.74c-6.549,0-11.863,5.313-11.863,11.861
			c0,0.937,0.11,1.833,0.304,2.703c-9.868-0.499-18.604-5.211-24.463-12.395c-1.025,1.748-1.608,3.795-1.608,5.968
			c0,4.113,2.1,7.75,5.277,9.864c-1.943-0.048-3.76-0.595-5.363-1.483V41.9c0,5.752,4.092,10.552,9.51,11.648
			c-0.99,0.265-2.046,0.406-3.121,0.406c-0.76,0-1.5-0.072-2.242-0.212c1.518,4.711,5.891,8.136,11.084,8.242
			c-4.063,3.177-9.183,5.064-14.74,5.064c-0.953,0-1.888-0.053-2.824-0.16c5.26,3.371,11.49,5.331,18.195,5.331
			c21.817,0,33.75-18.073,33.75-33.748l-0.035-1.536C75.295,35.26,77.309,33.178,78.896,30.792L78.896,30.792z"/>
	</g>
</g>
<g id="圖層_3" display="none">
	<g display="inline">
		<path fill="#FFFFFF" d="M59.857,27.545H31.859v45.678h11.587V60.591h27.998V27.545H59.857z M59.857,49.095h-16.41V39.042h16.41
			V49.095L59.857,49.095z"/>
	</g>
</g>
<g id="圖層_4">
	<g>
		<g>
			<path fill="#FFFFFF" d="M301.114,41.29c-1.408-1.005-4.106-3.42-4.106-4.854c0-1.673,0.479-2.51,2.986-4.474
				c2.583-2.033,4.424-4.851,4.424-8.154c0-3.943-1.771-7.768-5.048-9.036h4.952l3.517-2.511h-15.644
				c-6.979,0-13.574,5.308-13.574,11.453c0,6.261,4.777,11.334,11.904,11.334l1.432-0.049c-0.451,0.885-0.789,1.889-0.789,2.915
				c0,1.741,0.936,3.182,2.131,4.331l-2.725,0.022c-8.656,0-15.328,5.517-15.328,11.238c0,5.643,7.316,9.18,15.97,9.18
				c9.899,0,15.354-5.615,15.354-11.261C306.568,46.909,305.253,44.2,301.114,41.29z M292.771,33.473
				c-4.016-0.123-7.842-4.522-8.532-9.804c-0.7-5.284,2.006-9.325,6.022-9.208c4.014,0.124,7.84,4.379,8.539,9.636
				C299.491,29.408,296.787,33.588,292.771,33.473z M291.191,60.204c-5.976,0-10.303-3.802-10.303-8.351
				c0-4.465,5.357-8.193,11.355-8.131c1.39,0,2.708,0.238,3.875,0.629c3.249,2.246,5.595,3.537,6.244,6.121
				c0.141,0.525,0.188,1.074,0.188,1.602C302.552,56.645,299.633,60.204,291.191,60.204z"/>
		</g>
		<polygon fill="#FFFFFF" points="321.752,31.508 321.752,41.29 316.85,41.29 316.85,31.508 307.048,31.508 307.048,26.539 
			316.85,26.539 316.85,16.731 321.752,16.731 321.752,26.539 331.531,26.539 331.531,31.508 		"/>
	</g>
</g>
<g>
	<path fill="#FFFFFF" d="M80.877,52.689c1.483,0,2.689-1.207,2.689-2.688c0-1.483-1.206-2.689-2.689-2.689h-7.501v-4.813h7.501
		c1.483,0,2.689-1.206,2.689-2.689s-1.206-2.689-2.689-2.689H70.684c-1.481,0-2.687,1.206-2.687,2.689V60.19
		c0,1.484,1.207,2.69,2.687,2.69h10.193c1.481,0,2.689-1.206,2.689-2.69c0-1.482-1.208-2.689-2.689-2.689h-7.501v-4.812H80.877z"/>
	<path fill="#FFFFFF" d="M61.697,37.119c-1.481,0-2.689,1.206-2.689,2.689v12.609L48.562,38.196
		c-0.505-0.676-1.308-1.077-2.149-1.077c-0.288,0-0.577,0.045-0.854,0.138c-1.101,0.367-1.837,1.393-1.837,2.552V60.19
		c0,1.484,1.205,2.69,2.689,2.69s2.689-1.206,2.689-2.69V47.582l10.444,14.223c0.507,0.673,1.312,1.076,2.149,1.076
		c0.29,0,0.577-0.047,0.854-0.14c1.102-0.364,1.838-1.391,1.838-2.551V39.809C64.386,38.325,63.18,37.119,61.697,37.119z"/>
	<path fill="#FFFFFF" d="M37.167,37.119c-1.484,0-2.69,1.206-2.69,2.689V60.19c0,1.484,1.206,2.69,2.69,2.69
		c1.481,0,2.688-1.206,2.688-2.69V39.809C39.854,38.325,38.647,37.119,37.167,37.119z"/>
	<path fill="#FFFFFF" d="M29.313,57.501h-7.503V39.809c0-1.483-1.204-2.689-2.688-2.689s-2.689,1.206-2.689,2.689V60.19
		c0,1.484,1.205,2.69,2.689,2.69h10.191c1.484,0,2.688-1.206,2.688-2.69C32.002,58.708,30.797,57.501,29.313,57.501z"/>
</g>
</svg>
