<?xml version="1.0" encoding="utf-8"?>
<!-- Generator: Adobe Illustrator 16.0.3, SVG Export Plug-In . SVG Version: 6.00 Build 0)  -->
<!DOCTYPE svg PUBLIC "-//W3C//DTD SVG 1.1//EN" "http://www.w3.org/Graphics/SVG/1.1/DTD/svg11.dtd">
<svg version="1.1" id="圖層_1" xmlns="http://www.w3.org/2000/svg" xmlns:xlink="http://www.w3.org/1999/xlink" x="0px" y="0px"
	 width="200px" height="200px" viewBox="0 0 200 200" enable-background="new 0 0 200 200" xml:space="preserve">
<g>
	<g>
		<g>
			<defs>
				<rect id="SVGID_1_" x="50.66" y="17.836" width="96.062" height="150.664"/>
			</defs>
			<clipPath id="SVGID_2_">
				<use xlink:href="#SVGID_1_"  overflow="visible"/>
			</clipPath>
			<g clip-path="url(#SVGID_2_)">
				<path fill="#FFFFFF" d="M118.757,47.375v30.476c0,10.11-8.201,18.312-18.317,18.312h-4.134
					c-10.099,0-18.301-8.202-18.301-18.312V47.375c0-10.077,8.13-18.222,18.167-18.316v7.965c-3.949,0.899-6.877,4.1-6.877,7.942
					v10.611c0,4.542,4.068,8.221,9.086,8.221c5.02,0,9.084-3.679,9.084-8.221V44.965c0-4.025-3.218-7.372-7.466-8.073v-7.834h0.441
					C110.556,29.058,118.757,37.245,118.757,47.375L118.757,47.375z M92.825,46.68v7.189c0,3.068,2.484,5.554,5.556,5.554
					c3.072,0,5.574-2.485,5.574-5.554V46.68c0-3.076-2.502-5.556-5.574-5.556C95.309,41.124,92.825,43.604,92.825,46.68
					L92.825,46.68z M92.825,46.68"/>
			</g>
		</g>
	</g>
</g>
</svg>
