<?xml version="1.0" encoding="utf-8"?>
<!-- Generator: Adobe Illustrator 16.0.3, SVG Export Plug-In . SVG Version: 6.00 Build 0)  -->
<!DOCTYPE svg PUBLIC "-//W3C//DTD SVG 1.1//EN" "http://www.w3.org/Graphics/SVG/1.1/DTD/svg11.dtd">
<svg version="1.1" id="圖層_1" xmlns="http://www.w3.org/2000/svg" xmlns:xlink="http://www.w3.org/1999/xlink" x="0px" y="0px"
	 width="100px" height="100px" viewBox="0 0 100 100" enable-background="new 0 0 100 100" xml:space="preserve">
<circle fill="#E87536" cx="50" cy="50.001" r="42.667"/>
<g>
	<path fill="#FFFFFF" d="M39.397,62.469v7.795h20.808v-13H39.397V62.469z M42,59.865h15.603v2.604H42V59.865z M42,65.059h15.603
		v2.602H42V65.059z M42,65.059"/>
	<path fill="#FFFFFF" d="M60.205,39.056v-7.793H39.397v13h20.808V39.056z M60.205,39.056"/>
	<path fill="#FFFFFF" d="M65.397,39.056h-2.603v7.81h-26v-7.81h-2.59c-2.603,0-5.205,2.604-5.205,5.207v13
		c0,2.602,2.603,5.205,5.205,5.205h2.59V54.66h26v7.809h2.603c2.603,0,5.205-2.604,5.205-5.205v-13
		C70.603,41.661,68,39.056,65.397,39.056L65.397,39.056z M65.397,39.056"/>
</g>
</svg>
