<?xml version="1.0" encoding="utf-8"?>
<!-- Generator: Adobe Illustrator 16.0.3, SVG Export Plug-In . SVG Version: 6.00 Build 0)  -->
<!DOCTYPE svg PUBLIC "-//W3C//DTD SVG 1.1//EN" "http://www.w3.org/Graphics/SVG/1.1/DTD/svg11.dtd">
<svg version="1.1" id="圖層_1" xmlns="http://www.w3.org/2000/svg" xmlns:xlink="http://www.w3.org/1999/xlink" x="0px" y="0px"
	 width="100px" height="100px" viewBox="0 0 100 100" enable-background="new 0 0 100 100" xml:space="preserve">
<g>
	<g>
		<path fill="#FFFFFF" d="M68.744,63.159L56.729,51.146c3.238-5.693,2.434-13.079-2.416-17.929c-5.816-5.816-15.279-5.816-21.095,0
			c-5.817,5.816-5.817,15.279,0,21.096c4.849,4.85,12.234,5.654,17.928,2.416l12.013,12.014c1.541,1.54,4.045,1.539,5.585,0
			C70.283,67.204,70.283,64.698,68.744,63.159L68.744,63.159z M51.342,51.341c-4.177,4.178-10.974,4.178-15.152,0
			c-4.178-4.178-4.178-10.974,0-15.152s10.975-4.178,15.152,0C55.52,40.367,55.52,47.163,51.342,51.341L51.342,51.341z
			 M51.342,51.341"/>
	</g>
</g>
</svg>
