<?xml version="1.0" encoding="utf-8"?>
<!-- Generator: Adobe Illustrator 16.0.3, SVG Export Plug-In . SVG Version: 6.00 Build 0)  -->
<!DOCTYPE svg PUBLIC "-//W3C//DTD SVG 1.1//EN" "http://www.w3.org/Graphics/SVG/1.1/DTD/svg11.dtd">
<svg version="1.1" id="圖層_1" xmlns="http://www.w3.org/2000/svg" xmlns:xlink="http://www.w3.org/1999/xlink" x="0px" y="0px"
	 width="100px" height="100px" viewBox="0 0 100 100" enable-background="new 0 0 100 100" xml:space="preserve">
<g>
	<path fill="#FFFFFF" d="M59.241,55.766c-2.142,0-4.078,0.884-5.469,2.307l-12.02-7.018c0.194-0.677,0.306-1.393,0.306-2.132
		c0-0.707-0.101-1.387-0.281-2.037l11.929-6.759c1.396,1.464,3.358,2.381,5.535,2.381c4.223,0,7.657-3.436,7.657-7.659
		c0-4.222-3.435-7.658-7.657-7.658s-7.658,3.436-7.658,7.658c0,0.705,0.104,1.388,0.284,2.037l-11.929,6.759
		c-1.395-1.464-3.359-2.38-5.535-2.38c-4.223,0-7.658,3.435-7.658,7.658c0,4.222,3.435,7.657,7.658,7.657
		c2.141,0,4.077-0.885,5.468-2.306l12.02,7.015c-0.197,0.682-0.309,1.395-0.309,2.134c0,4.223,3.436,7.659,7.658,7.659
		s7.657-3.437,7.657-7.659C66.898,59.202,63.464,55.766,59.241,55.766L59.241,55.766z M59.241,55.766"/>
</g>
</svg>
