<svg id="圖層_1" data-name="圖層 1" xmlns="http://www.w3.org/2000/svg" viewBox="0 0 48 48"><defs><style>.cls-1{fill:#ff9a32;}</style></defs><title>icon_arrow</title><path fill="#f29100" class="cls-1" d="M40.81,36.41A2.58,2.58,0,0,1,39,35.68l-15.36-15-15.32,14a2.57,2.57,0,0,1-1.75.69,2.59,2.59,0,0,1-1.75-4.5L23.75,13.56,42.62,32a2.58,2.58,0,0,1,0,3.66A2.54,2.54,0,0,1,40.81,36.41Z"/><path fill="#f29100" class="cls-1" d="M40.81,34.91a1.06,1.06,0,0,1-.76-.31l-16.38-16-16.36,15A1.09,1.09,0,1,1,5.84,32L23.71,15.63,41.57,33a1.1,1.1,0,0,1,0,1.55A1.13,1.13,0,0,1,40.81,34.91Z"/></svg>