<?xml version="1.0" encoding="utf-8"?>
<!-- Generator: Adobe Illustrator 16.0.3, SVG Export Plug-In . SVG Version: 6.00 Build 0)  -->
<!DOCTYPE svg PUBLIC "-//W3C//DTD SVG 1.1//EN" "http://www.w3.org/Graphics/SVG/1.1/DTD/svg11.dtd">
<svg version="1.1" id="圖層_1" xmlns="http://www.w3.org/2000/svg" xmlns:xlink="http://www.w3.org/1999/xlink" x="0px" y="0px"
	 width="100px" height="100px" viewBox="0 0 100 100" enable-background="new 0 0 100 100" xml:space="preserve">
<g>
	<g>
		<path fill="#FFFFFF" d="M57.326,66.648c0,0.413-0.338,0.75-0.752,0.75H34.146c-0.413,0-0.75-0.337-0.75-0.75V33.353
			c0-0.413,0.337-0.75,0.75-0.75h15.485v4.047c0,1.966,1.6,3.566,3.566,3.566h4.129v4.571l2.817-4.637c0,0-0.019-1.365-0.019-1.435
			c0-0.125-0.018-0.515-0.401-0.91l-7.694-7.613c-0.117-0.118-0.354-0.39-0.904-0.39c-0.03,0-16.979-0.017-16.979-0.017
			c-1.968,0-3.568,1.599-3.568,3.567v33.295c0,1.968,1.6,3.565,3.568,3.565h22.429c1.97,0,3.569-1.598,3.569-3.565V55.307
			l-2.817,4.637V66.648z M57.326,66.648"/>
		<path fill="#FFFFFF" d="M50.587,62.742c-0.012,0.154,0.064,0.307,0.198,0.386c0.063,0.041,0.138,0.06,0.213,0.06
			c0.077,0,0.153-0.021,0.219-0.062l4.019-2.536c0.051-0.035,0.098-0.079,0.132-0.137l0.018-0.028l-4.318-2.624l-0.02,0.03
			c-0.033,0.057-0.055,0.114-0.058,0.181L50.587,62.742z M50.587,62.742"/>
		<path fill="#FFFFFF" d="M69.404,34.759c-0.043-0.169-0.149-0.315-0.3-0.407l-1.215-0.739c-0.108-0.064-0.227-0.096-0.344-0.096
			c-0.225,0-0.443,0.113-0.566,0.317l-1.147,1.889l-0.358-0.217c-0.115-0.071-0.248-0.107-0.383-0.107
			c-0.057,0-0.116,0.007-0.174,0.021c-0.189,0.047-0.353,0.167-0.455,0.334L51.8,56.598l4.318,2.622l12.665-20.839
			c0.21-0.349,0.1-0.803-0.248-1.015l-0.358-0.215l1.149-1.889C69.417,35.111,69.445,34.932,69.404,34.759L69.404,34.759z
			 M66.354,38.867l-4.46,7.337c-0.131,0.218-0.364,0.338-0.602,0.338c-0.124,0-0.25-0.033-0.365-0.102
			c-0.333-0.202-0.439-0.636-0.237-0.968l4.459-7.336c0.204-0.333,0.637-0.439,0.969-0.237
			C66.45,38.101,66.556,38.535,66.354,38.867L66.354,38.867z M66.354,38.867"/>
	</g>
	<rect x="36.174" y="41.36" fill="#FFFFFF" width="14.725" height="1.991"/>
	<rect x="36.174" y="47.276" fill="#FFFFFF" width="14.725" height="1.99"/>
	<rect x="36.174" y="53.305" fill="#FFFFFF" width="14.725" height="1.992"/>
</g>
</svg>
