<?xml version="1.0" encoding="utf-8"?>
<!-- Generator: Adobe Illustrator 16.0.3, SVG Export Plug-In . SVG Version: 6.00 Build 0)  -->
<!DOCTYPE svg PUBLIC "-//W3C//DTD SVG 1.1//EN" "http://www.w3.org/Graphics/SVG/1.1/DTD/svg11.dtd">
<svg version="1.1" id="圖層_1" xmlns="http://www.w3.org/2000/svg" xmlns:xlink="http://www.w3.org/1999/xlink" x="0px" y="0px"
	 width="100px" height="100px" viewBox="0 0 100 100" enable-background="new 0 0 100 100" xml:space="preserve">
<g>
	<path fill="#FFFFFF" d="M50,48.214l-3.32-2.157l-8.056,7.638c0.166,0.498,0.75,0.83,1.249,0.83h20.006
		c0.666,0,1.082-0.332,1.248-0.83l-7.807-7.724L50,48.214z M50,48.214"/>
	<path fill="#FFFFFF" d="M50,47.137l11.042-7.392l0.168-0.332c-0.168-0.413-0.746-0.746-1.246-0.746H39.955
		c-0.499,0-1.08,0.333-1.246,0.831l0.166,0.332L50,47.137z M50,47.137"/>
	<path fill="#FFFFFF" d="M38.624,40.662v11.789l7.31-6.974L38.624,40.662z M38.624,40.662"/>
	<path fill="#FFFFFF" d="M61.376,52.451V40.662l-7.307,4.815L61.376,52.451z M61.376,52.451"/>
	<path fill="#FFFFFF" d="M64.614,33.105H35.637c-3.073,0-5.563,2.488-5.563,5.562v18.017c0,2.992,2.489,5.561,5.563,5.561h7.889
		v1.498h-2.906c-0.832,0-1.576,0.746-1.576,1.576s0.744,1.576,1.576,1.576h18.762c0.831,0,1.58-0.746,1.58-1.576
		s-0.749-1.576-1.58-1.576h-2.902v-1.498h7.885c2.991,0,5.563-2.488,5.563-5.561V38.667C69.926,35.593,67.517,33.105,64.614,33.105
		L64.614,33.105z M67.354,50.874v3.568c0,1.496-1.163,2.824-2.825,2.906H35.471c-1.577,0-2.822-1.244-2.907-2.74v-15.94
		c0-1.658,1.33-2.906,2.907-2.906h28.893c1.661,0,2.906,1.329,2.906,2.906v12.207H67.354z M67.354,50.874"/>
</g>
</svg>
