<?xml version="1.0" encoding="utf-8"?>
<!-- Generator: Adobe Illustrator 16.0.3, SVG Export Plug-In . SVG Version: 6.00 Build 0)  -->
<!DOCTYPE svg PUBLIC "-//W3C//DTD SVG 1.1//EN" "http://www.w3.org/Graphics/SVG/1.1/DTD/svg11.dtd">
<svg version="1.1" xmlns="http://www.w3.org/2000/svg" xmlns:xlink="http://www.w3.org/1999/xlink" x="0px" y="0px" width="100px"
	 height="100px" viewBox="0 0 100 100" enable-background="new 0 0 100 100" xml:space="preserve">
<g id="facebook" display="none">
	<path display="inline" fill="#110909" d="M62.527,50.384H51.201v30.454H38.148V50.384h-6.29v-9.963h6.29v-6.47
		c0-8.792,3.793-14.02,14.131-14.02h11.914V30.71h-9.73c-2.888-0.005-3.245,1.506-3.245,4.318l-0.017,5.394h13.051L62.527,50.384z"
		/>
</g>
<g id="twitter" display="none">
	<g display="inline">
		<path fill="#FFFFFF" d="M78.896,30.792c-2.118,0.939-4.413,1.59-6.813,1.875c2.453-1.469,4.324-3.797,5.226-6.57
			c-2.297,1.359-4.836,2.35-7.555,2.877c-2.155-2.295-5.244-3.74-8.648-3.74c-6.549,0-11.864,5.313-11.864,11.861
			c0,0.936,0.11,1.833,0.304,2.703c-9.868-0.499-18.604-5.211-24.463-12.395c-1.025,1.748-1.608,3.795-1.608,5.968
			c0,4.113,2.1,7.75,5.277,9.864c-1.943-0.048-3.76-0.595-5.363-1.483V41.9c0,5.752,4.092,10.552,9.51,11.648
			c-0.99,0.265-2.046,0.406-3.121,0.406c-0.76,0-1.5-0.072-2.242-0.212c1.518,4.711,5.891,8.136,11.084,8.242
			c-4.063,3.177-9.183,5.065-14.74,5.065c-0.953,0-1.888-0.053-2.824-0.16c5.26,3.371,11.49,5.331,18.195,5.331
			c21.817,0,33.75-18.074,33.75-33.748l-0.035-1.536C75.295,35.26,77.308,33.178,78.896,30.792L78.896,30.792z"/>
	</g>
</g>
<g id="圖層_3">
	<g>
		<path fill="#FFFFFF" d="M59.857,27.545H31.859v45.678h11.587V60.591h27.998V27.545H59.857z M59.857,49.095H43.447V39.042h16.411
			V49.095z"/>
	</g>
</g>
</svg>
